Normalized EMG Linear Envelopes
nRows=135
nColumns=4

endheader
time	 med_gas_r	  soleus_r	 tib_ant_r	
4.36565	  0.020623	  0.024099	  0.013212	
4.43722	  0.020438	  0.023379	  0.012469	
4.50878	  0.020007	  0.022824	  0.011929	
4.58035	  0.019497	  0.022495	  0.011740	
4.65192	  0.019496	  0.022347	  0.011881	
4.72349	  0.021102	  0.022415	  0.012139	
4.79506	  0.025947	  0.022963	  0.012338	
4.86662	  0.034645	  0.024261	  0.012505	
4.93819	  0.043585	  0.026014	  0.012705	
5.00976	  0.046358	  0.027396	  0.012861	
5.08133	  0.041677	  0.027930	  0.012890	
5.1529	  0.035477	  0.027765	  0.012909	
5.22446	  0.033021	  0.027083	  0.013041	
5.29603	  0.034441	  0.025962	  0.012885	
5.3676	  0.038002	  0.024744	  0.011432	
5.43917	  0.042091	  0.023868	  0.007872	
5.51074	  0.044599	  0.023491	  0.003221	
5.5823	  0.044043	  0.023841	  0.002647	
5.65387	  0.040936	  0.026038	  0.017339	
5.72544	  0.037793	  0.031736	  0.060599	
5.79701	  0.038178	  0.040457	  0.131144	
5.86858	  0.043322	  0.047560	  0.198653	
5.94014	  0.048948	  0.047721	  0.223811	
6.01171	  0.048224	  0.040355	  0.198842	
6.08328	  0.040331	  0.029604	  0.153917	
6.15485	  0.036207	  0.022142	  0.121120	
6.22642	  0.058712	  0.028576	  0.103328	
6.29798	  0.137814	  0.064074	  0.084125	
6.36955	  0.282219	  0.136045	  0.058235	
6.44112	  0.447519	  0.227798	  0.036268	
6.51269	  0.572785	  0.316509	  0.026423	
6.58426	  0.643934	  0.399900	  0.027386	
6.65582	  0.680870	  0.470568	  0.033696	
6.72739	  0.696673	  0.503118	  0.040002	
6.79896	  0.698045	  0.502422	  0.043548	
6.87053	  0.693967	  0.508421	  0.044658	
6.9421	  0.693472	  0.541723	  0.044678	
7.01366	  0.699200	  0.587246	  0.044311	
7.08523	  0.705285	  0.616750	  0.043445	
7.1568	  0.711088	  0.612838	  0.041984	
7.22837	  0.726241	  0.586894	  0.040926	
7.29994	  0.751477	  0.565890	  0.041602	
7.3715	  0.773349	  0.564796	  0.043863	
7.44307	  0.782581	  0.583650	  0.046323	
7.51464	  0.780718	  0.613003	  0.047803	
7.58621	  0.772648	  0.638702	  0.048123	
7.65778	  0.761448	  0.654327	  0.048210	
7.72934	  0.750356	  0.664313	  0.049096	
7.80091	  0.749720	  0.674837	  0.050639	
7.87248	  0.771457	  0.688406	  0.051801	
7.94405	  0.810104	  0.705816	  0.051915	
8.01562	  0.846233	  0.729458	  0.051392	
8.08718	  0.874228	  0.758477	  0.051176	
8.15875	  0.902676	  0.780759	  0.051453	
8.23032	  0.928866	  0.782399	  0.051704	
8.30189	  0.936042	  0.766855	  0.051763	
8.37346	  0.912296	  0.753234	  0.051433	
8.44502	  0.864541	  0.756517	  0.050301	
8.51659	  0.813042	  0.778579	  0.048694	
8.58816	  0.768691	  0.808709	  0.047485	
8.65973	  0.726983	  0.823495	  0.047130	
8.7313	  0.689152	  0.802620	  0.047379	
8.80286	  0.663941	  0.749777	  0.047200	
8.87443	  0.649062	  0.693656	  0.045589	
8.946	  0.639521	  0.671400	  0.043136	
9.01757	  0.640931	  0.694967	  0.041637	
9.08914	  0.653601	  0.733797	  0.041879	
9.1607	  0.662824	  0.751079	  0.042797	
9.23227	  0.659804	  0.741244	  0.042980	
9.30384	  0.657075	  0.721354	  0.042320	
9.37541	  0.669632	  0.709025	  0.041647	
9.44698	  0.693034	  0.709019	  0.041188	
9.51854	  0.706786	  0.707374	  0.040413	
9.59011	  0.695034	  0.690504	  0.039293	
9.66168	  0.668889	  0.673811	  0.038610	
9.73325	  0.651924	  0.682688	  0.038774	
9.80482	  0.644629	  0.708187	  0.039469	
9.87638	  0.637442	  0.720272	  0.040508	
9.94795	  0.634862	  0.711702	  0.041585	
10.0195	  0.633873	  0.696262	  0.041483	
10.0911	  0.613362	  0.683908	  0.039408	
10.1627	  0.562470	  0.673967	  0.036550	
10.2342	  0.496165	  0.659665	  0.034694	
10.3058	  0.444458	  0.638441	  0.034238	
10.3774	  0.434811	  0.616992	  0.034363	
10.4489	  0.472307	  0.602637	  0.034332	
10.5205	  0.531620	  0.598374	  0.034223	
10.5921	  0.576001	  0.607014	  0.034459	
10.6636	  0.587507	  0.629714	  0.035139	
10.7352	  0.575601	  0.658313	  0.036226	
10.8068	  0.561401	  0.679596	  0.037660	
10.8783	  0.559853	  0.688604	  0.038772	
10.9499	  0.570721	  0.686432	  0.038646	
11.0215	  0.581956	  0.668804	  0.037769	
11.093	  0.581569	  0.633296	  0.037678	
11.1646	  0.571852	  0.596219	  0.038398	
11.2362	  0.572178	  0.583199	  0.038315	
11.3077	  0.597672	  0.605402	  0.036957	
11.3793	  0.642321	  0.661654	  0.036065	
11.4509	  0.688786	  0.742091	  0.037562	
11.5224	  0.721510	  0.810520	  0.041382	
11.594	  0.731646	  0.820369	  0.045362	
11.6656	  0.720537	  0.765894	  0.046939	
11.7372	  0.693606	  0.688985	  0.045372	
11.8087	  0.653509	  0.629537	  0.042547	
11.8803	  0.612671	  0.591698	  0.041034	
11.9519	  0.595933	  0.565032	  0.041503	
12.0234	  0.607907	  0.547882	  0.042662	
12.095	  0.619256	  0.537685	  0.042915	
12.1666	  0.601885	  0.526823	  0.041450	
12.2381	  0.553502	  0.512505	  0.038411	
12.3097	  0.491907	  0.501847	  0.034742	
12.3813	  0.442431	  0.501620	  0.031532	
12.4528	  0.413898	  0.501235	  0.029068	
12.5244	  0.390224	  0.486300	  0.027041	
12.596	  0.356595	  0.457931	  0.025346	
12.6675	  0.318952	  0.424504	  0.024090	
12.7391	  0.293397	  0.396454	  0.023368	
12.8107	  0.285960	  0.382253	  0.023024	
12.8822	  0.290627	  0.380975	  0.022710	
12.9538	  0.301874	  0.390964	  0.022395	
13.0254	  0.316297	  0.414535	  0.022288	
13.0969	  0.327357	  0.440522	  0.022403	
13.1685	  0.331050	  0.439891	  0.022682	
13.2401	  0.331345	  0.401816	  0.023261	
13.3116	  0.330771	  0.352861	  0.024181	
13.3832	  0.325340	  0.321529	  0.024956	
13.4548	  0.314504	  0.310150	  0.024800	
13.5264	  0.305442	  0.305209	  0.023432	
13.5979	  0.305535	  0.296874	  0.021484	
13.6695	  0.312000	  0.285632	  0.020004	
13.7411	  0.313543	  0.276965	  0.019647	
13.8126	  0.310632	  0.287109	  0.020102	
13.8842	  0.319895	  0.341446	  0.020363	
13.9558	  0.347255	  0.438897	  0.019948	
